<svg width="173" height="25" viewBox="0 0 173 25" fill="none" xmlns="http://www.w3.org/2000/svg">
<path d="M0 23.8168H11.6611C16.2601 23.8168 18.6142 21.5202 18.6142 17.1481V17.08C18.6142 13.8308 17.1175 11.8574 14.2334 11.296V10.9897C16.6498 10.4794 17.9126 8.74417 17.9126 5.92017V5.83511C17.9126 1.9904 15.7145 0 11.4117 0H0V23.8168ZM4.59897 9.74787V3.36838H10.0398C12.2379 3.36838 13.3292 4.42312 13.3292 6.49858V6.56663C13.3292 8.67612 12.2379 9.74787 10.0398 9.74787H4.59897ZM4.59897 20.4314V12.8441H10.1801C12.5965 12.8441 13.7969 14.1029 13.7969 16.5697V16.6377C13.7969 19.1555 12.5965 20.4314 10.1801 20.4314H4.59897Z" fill="white"/>
<path d="M22.9462 0V23.8168H27.4828V0H22.9462Z" fill="white"/>
<path d="M36.9751 24.2591C40.6387 24.2591 43.3046 22.4728 44.2867 19.4447L44.5985 19.5298C44.0061 22.8301 44.6297 24.2591 48.2153 24.2591C48.6674 24.2591 49.1195 24.2081 49.4937 24.14L50.0237 21.1969L49.2443 21.1799C48.3868 21.1629 48.1374 20.9418 48.1374 19.7339V11.5511C48.1374 7.50229 45.6742 5.56292 40.4205 5.56292C34.8393 5.56292 32.0176 7.96161 32.2514 12.1125L36.7257 12.5208C36.5386 9.7819 37.817 8.54002 40.3269 8.54002C42.5718 8.54002 43.6319 9.44166 43.6319 11.5001V12.5038L39.2045 13.3884C34.777 14.2901 31.8461 15.8212 31.8461 19.5638V19.6148C31.8461 22.5749 33.6857 24.2591 36.9751 24.2591ZM38.7835 20.9588C37.2557 20.9588 36.4295 20.3634 36.4295 19.1385V19.1045C36.4295 17.3522 37.8793 16.6377 40.7478 16.0253L43.6319 15.4129V16.2465C43.6319 18.9854 41.3714 20.9588 38.7835 20.9588Z" fill="white"/>
<path d="M53.8414 23.8168H58.378V15.5149C58.378 11.5001 60.1084 9.01636 62.9769 9.01636C65.1127 9.01636 66.1728 10.2242 66.1728 12.5378V23.8168H70.7095V11.347C70.7095 7.60436 68.6984 5.63097 64.9568 5.63097C61.5583 5.63097 59.2354 7.26412 57.8635 10.6665L57.5517 10.5134C58.1753 8.48899 58.3936 7.28113 58.3936 5.9542H53.8414V23.8168Z" fill="white"/>
<path d="M84.2083 24.2421C89.5556 24.2421 92.5488 21.8944 93.0009 17.3522L88.4175 16.7908C88.2305 19.6489 86.7962 21.0949 84.2239 21.0949C81.3398 21.0949 79.8432 19.1215 79.8432 15.2257V14.3921C79.8432 10.5815 81.3554 8.65911 84.1771 8.65911C86.7806 8.65911 88.1369 10.2412 88.3396 13.4055L92.8606 12.8441C92.502 8.02966 89.6179 5.5289 84.1927 5.5289C78.2998 5.5289 75.1974 8.67612 75.1974 14.6984V14.9195C75.1974 21.0438 78.2686 24.2421 84.2083 24.2421Z" fill="white"/>
<path d="M97.5201 23.8168H102.057V15.5149C102.057 11.5001 103.772 9.03337 106.656 9.03337C108.791 9.03337 109.852 10.2242 109.852 12.5378V23.8168H114.388V11.347C114.388 7.60436 112.362 5.63097 108.636 5.63097C105.206 5.63097 102.899 7.26412 101.542 10.6495L101.215 10.5134C101.823 8.60807 102.041 7.19607 102.057 5.51189V0H97.5201V23.8168Z" fill="white"/>
<path d="M123.803 24.2591C127.466 24.2591 130.132 22.4728 131.114 19.4447L131.426 19.5298C130.833 22.8301 131.457 24.2591 135.043 24.2591C135.495 24.2591 135.947 24.2081 136.321 24.14L136.851 21.1969L136.072 21.1799C135.214 21.1629 134.965 20.9418 134.965 19.7339V11.5511C134.965 7.50229 132.502 5.56292 127.248 5.56292C121.667 5.56292 118.845 7.96161 119.079 12.1125L123.553 12.5208C123.366 9.7819 124.644 8.54002 127.154 8.54002C129.399 8.54002 130.459 9.44166 130.459 11.5001V12.5038L126.032 13.3884C121.604 14.2901 118.673 15.8212 118.673 19.5638V19.6148C118.673 22.5749 120.513 24.2591 123.803 24.2591ZM125.611 20.9588C124.083 20.9588 123.257 20.3634 123.257 19.1385V19.1045C123.257 17.3522 124.707 16.6377 127.575 16.0253L130.459 15.4129V16.2465C130.459 18.9854 128.199 20.9588 125.611 20.9588Z" fill="white"/>
<path d="M140.669 23.8168H145.205V16.3485C145.205 11.6872 146.53 9.96903 149.991 9.69684L152.221 9.50971L151.691 5.3928C148.027 5.69902 146.328 6.95791 144.644 10.6665L144.348 10.5134C145.081 8.13173 145.252 7.17906 145.221 5.9542H140.669V23.8168Z" fill="white"/>
<path d="M162.243 24.14C165.61 24.14 167.809 22.4388 168.915 19.3597L169.243 19.4787C168.713 21.3501 168.432 22.8301 168.417 23.8168H173V0H168.463V4.84842C168.463 6.71974 168.697 8.23381 169.258 10.2923L168.947 10.4284C167.84 7.36619 165.626 5.59695 162.243 5.59695C157.566 5.59695 155.103 8.71014 155.103 14.6643V15.0896C155.103 21.0268 157.566 24.14 162.243 24.14ZM163.958 21.0779C161.152 21.0779 159.686 19.1215 159.686 15.2598V14.4772C159.686 10.5985 161.152 8.62508 163.958 8.62508C166.889 8.62508 168.463 10.7005 168.463 14.5623V15.1747C168.463 19.0194 166.889 21.0779 163.958 21.0779Z" fill="white"/>
</svg>
